<?xml version="1.0" encoding="UTF-8" standalone="no"?>
<svg width="100px" height="76px" viewBox="0 0 100 76" version="1.1" xmlns="http://www.w3.org/2000/svg" xmlns:xlink="http://www.w3.org/1999/xlink" xmlns:sketch="http://www.bohemiancoding.com/sketch/ns">
    <title>Slice 1</title>
    <description>Created with Sketch (http://www.bohemiancoding.com/sketch)</description>
    <defs></defs>
    <g id="Page-1" stroke="none" stroke-width="1" fill="none" fill-rule="evenodd" sketch:type="MSPage">
        <path d="M19.198,44.002 L19.198,35.801 L10.623,35.801 C7.304,35.801 4.602,32.927 4.602,29.395 L4.602,10.903 C4.602,7.37 7.303,4.495 10.623,4.495 L48.968,4.495 C52.287,4.495 54.987,7.37 54.987,10.903 L54.987,29.395 C54.987,32.927 52.287,35.801 48.968,35.801 L48.968,40.297 C54.765,40.297 59.482,35.406 59.482,29.395 L59.482,10.903 C59.482,4.892 54.766,1.77635684e-15 48.968,1.77635684e-15 L10.623,1.77635684e-15 C4.824,1.77635684e-15 0.107,4.892 0.107,10.903 L0.107,29.395 C0.107,35.406 4.824,40.297 10.623,40.297 L14.703,40.297 L14.703,48.265 C14.703,49.488 15.492,50.597 16.666,51.029 C17,51.152 17.343,51.213 17.68,51.213 C18.501,51.213 19.289,50.859 19.845,50.203 L28.214,40.298 L36.567,40.298 L36.567,35.802 L26.128,35.802 L19.198,44.002 L19.198,44.002 Z M89.377,24.233 L63.417,24.233 L63.417,28.729 L89.377,28.729 C92.696,28.729 95.398,31.604 95.398,35.137 L95.398,53.626 C95.398,57.159 92.697,60.034 89.377,60.034 L80.803,60.034 L80.803,68.239 L73.872,60.036 L51.031,60.036 C47.713,60.036 45.012,57.161 45.012,53.628 L45.012,35.137 C45.012,31.604 47.713,28.729 51.031,28.729 L51.031,24.233 C45.234,24.233 40.516,29.125 40.516,35.136 L40.516,53.627 C40.516,59.641 45.233,64.531 51.031,64.531 L71.785,64.531 L80.157,74.441 C80.712,75.093 81.499,75.445 82.318,75.445 C82.655,75.445 82.998,75.386 83.332,75.263 C84.508,74.831 85.299,73.72 85.299,72.495 L85.299,64.53 L89.377,64.53 C95.176,64.53 99.893,59.639 99.893,53.626 L99.893,35.137 C99.893,29.125 95.176,24.233 89.377,24.233 L89.377,24.233 Z M26.532,7.437 L18.58,28.388 L23.245,28.388 L24.889,23.723 L32.723,23.723 L34.307,28.388 L39.089,28.388 L31.255,7.437 L26.532,7.437 L26.532,7.437 Z M26.093,20.29 L28.822,12.602 L28.88,12.602 L31.521,20.29 L26.093,20.29 L26.093,20.29 Z M63.982,52.901 C66.858,52.84 69.703,51.014 70.629,50.19 C71.555,49.364 74.049,46.497 75.15,44.227 C76.543,44.885 77.203,45.987 77.203,47.207 C77.203,49.846 74.661,51.377 70.604,51.842 L72.572,54.567 C78.926,53.735 81.088,51.067 81.088,47.159 C81.088,43.858 79.011,41.854 76.348,40.976 L76.536,40.236 L72.925,39.593 C72.901,39.958 72.828,40.025 72.757,40.391 C71.46,40.317 70.019,40.512 69.555,40.61 C69.555,39.95 69.579,38.189 69.604,37.555 C72.61,37.433 75.566,37.19 78.303,36.774 L77.985,33.208 C75.175,33.77 72.462,34.064 69.799,34.211 C69.871,33.501 69.971,31.494 69.971,31.494 L66.158,31.203 L66.037,34.331 C64.349,34.355 62.348,34.355 61.295,34.331 L61.466,37.777 L61.88,37.777 C62.883,37.777 64.521,37.726 65.989,37.678 C65.989,38.63 66.012,40.683 66.037,41.612 C62.589,43.051 60.12,45.717 60.12,49.114 C60.12,51.411 61.588,52.901 63.982,52.901 Z M71.606,43.59 C71.092,44.615 70.482,45.547 69.798,46.326 C69.698,45.519 69.65,44.689 69.602,43.81 C69.87,43.762 70.945,43.59 71.606,43.59 L71.606,43.59 Z M66.229,45.008 C66.352,46.377 66.499,47.696 66.718,48.893 C66.084,49.211 65.474,49.407 64.909,49.432 C63.686,49.481 63.686,48.7 63.686,48.356 C63.687,47.059 64.689,45.864 66.229,45.008 L66.229,45.008 Z" id="Shape" fill="#2E2E2E" sketch:type="MSShapeGroup"></path>
    </g>
</svg>